HIERARCHY
ROOT SpineBase
{
  OFFSET 0.000000 0.000000 0.000000
  CHANNELS 6 Xposition Yposition Zposition Zrotation Xrotation Yrotation
  JOINT SpineMid
  {
    OFFSET -0.000000 32.955681 0.000000
    CHANNELS 3 Zrotation Xrotation Yrotation
    JOINT SpineShoulder
    {
      OFFSET 0.184630 24.240501 -0.474927
      CHANNELS 3 Zrotation Xrotation Yrotation
      JOINT Neck
      {
        OFFSET 0.059210 7.914272 -0.520875
        CHANNELS 3 Zrotation Xrotation Yrotation
        JOINT Head
        {
          OFFSET -2.497458 12.547337 4.225868
          CHANNELS 3 Zrotation Xrotation Yrotation
          End Site
          {
            OFFSET 0 0 0
          }
        }
      }
      JOINT ShoulderLeft
      {
        OFFSET -6.850800 -7.181360 -12.673571
        CHANNELS 3 Zrotation Xrotation Yrotation
        JOINT ElbowLeft
        {
          OFFSET 15.104355 -15.188210 19.340484
          CHANNELS 3 Zrotation Xrotation Yrotation
          JOINT WristLeft
          {
            OFFSET 14.190545 -22.861052 11.980601
            CHANNELS 3 Zrotation Xrotation Yrotation
            JOINT HandLeft
            {
              OFFSET 4.724076 -7.072398 4.781147
              CHANNELS 3 Zrotation Xrotation Yrotation
              JOINT HandTipLeft
              {
                OFFSET 0.050983 -2.316758 0.084093
                CHANNELS 3 Zrotation Xrotation Yrotation
                End Site
                {
                  OFFSET 0 0 0
                }
              }
              JOINT ThumbLeft
              {
                OFFSET -0.086644 -0.278834 -4.321166
                CHANNELS 3 Zrotation Xrotation Yrotation
                End Site
                {
                  OFFSET 0 0 0
                }
              }
            }
          }
        }
      }
      JOINT ShoulderRight
      {
        OFFSET 15.625571 -7.095201 6.464459
        CHANNELS 3 Zrotation Xrotation Yrotation
        JOINT ElbowRight
        {
          OFFSET -21.310691 -17.044489 -16.949109
          CHANNELS 3 Zrotation Xrotation Yrotation
          JOINT WristRight
          {
            OFFSET -14.064129 -27.923620 -3.402433
            CHANNELS 3 Zrotation Xrotation Yrotation
            JOINT HandRight
            {
              OFFSET -2.821654 -8.691993 1.273893
              CHANNELS 3 Zrotation Xrotation Yrotation
              JOINT HandTipRight
              {
                OFFSET -3.928740 -7.365163 -1.053235
                CHANNELS 3 Zrotation Xrotation Yrotation
                End Site
                {
                  OFFSET 0 0 0
                }
              }
              JOINT ThumbRight
              {
                OFFSET 7.248356 -0.449221 5.045122
                CHANNELS 3 Zrotation Xrotation Yrotation
                End Site
                {
                  OFFSET 0 0 0
                }
              }
            }
          }
        }
      }
    }
  }
  JOINT HipLeft
  {
    OFFSET -5.333356 1.122407 1.368867
    CHANNELS 3 Zrotation Xrotation Yrotation
    JOINT KneeLeft
    {
      OFFSET 3.407270 -40.007479 -13.389358
      CHANNELS 3 Zrotation Xrotation Yrotation
      JOINT AnkleLeft
      {
        OFFSET 15.926093 -38.417662 13.292442
        CHANNELS 3 Zrotation Xrotation Yrotation
        JOINT FootLeft
        {
          OFFSET 3.285849 -5.178602 -7.141825
          CHANNELS 3 Zrotation Xrotation Yrotation
          End Site
          {
            OFFSET 0 0 0
          }
        }
      }
    }
  }
  JOINT HipRight
  {
    OFFSET 4.819521 0.733105 -8.426868
    CHANNELS 3 Zrotation Xrotation Yrotation
    JOINT KneeRight
    {
      OFFSET 3.695529 -38.041674 4.861353
      CHANNELS 3 Zrotation Xrotation Yrotation
      JOINT AnkleRight
      {
        OFFSET -4.914761 -37.220025 -12.503696
        CHANNELS 3 Zrotation Xrotation Yrotation
        JOINT FootRight
        {
          OFFSET -2.394935 -7.980755 -0.318426
          CHANNELS 3 Zrotation Xrotation Yrotation
          End Site
          {
            OFFSET 0 0 0
          }
        }
      }
    }
  }
}
MOTION
Frames: 5
Frame Time: 0.033333
18.172012 81.654131 280.845966 0.876142 1.410119 -26.602338 1.113749 -0.453847 26.641487 0.271700 0.311587 0.088733 -3.907462 0.717933 0.828970 0.000000 0.000000 0.000000 -68.737158 50.047032 29.976475 10.309154 -25.021103 0.376346 -15.827577 -5.335789 -53.961214 43.936146 6.749322 37.457288 0.000000 0.000000 0.000000 0.000000 0.000000 0.000000 3.221432 -3.999917 -1.178689 -11.931505 7.839806 0.383603 -4.896065 -1.358412 -1.507959 15.214840 -12.274061 8.296861 0.000000 0.000000 0.000000 0.000000 0.000000 0.000000 -1.566245 -12.293037 27.712595 8.760154 4.854235 -2.726134 7.871125 22.151068 -3.500272 0.000000 0.000000 0.000000 -24.546027 11.870250 29.108381 31.598861 -31.636733 7.063520 73.281924 50.540073 -76.577930 0.000000 0.000000 0.000000
17.947426 81.766034 280.817661 0.768984 1.437293 -25.643134 1.088549 -0.469451 25.679893 0.295548 0.306649 0.085270 -4.064799 0.573676 0.896444 0.000000 0.000000 0.000000 -67.741454 49.756258 29.822148 9.550191 -24.538091 -0.402258 -15.002363 -5.076882 -51.608606 41.351637 1.694728 36.215395 0.000000 0.000000 0.000000 0.000000 0.000000 0.000000 3.281839 -3.985285 -1.194437 -11.383280 7.817804 0.281265 -1.810020 0.341821 -1.180968 12.638940 -14.789745 8.978254 0.000000 0.000000 0.000000 0.000000 0.000000 0.000000 -1.695244 -12.240786 26.741129 8.789069 4.834316 -2.736595 7.813798 22.207831 -3.408889 0.000000 0.000000 0.000000 -23.954117 12.165218 28.174181 31.505771 -31.500900 6.958808 73.163083 50.720568 -76.748023 0.000000 0.000000 0.000000
17.768283 81.805355 280.826562 0.737811 1.415542 -25.126959 1.020361 -0.466648 25.160889 0.325320 0.315387 0.083494 -4.396715 0.453790 1.008006 0.000000 0.000000 0.000000 -67.690617 49.740893 29.886865 9.883814 -24.723967 -0.158838 -13.717102 -4.174916 -46.533974 41.316430 -4.061164 33.240039 0.000000 0.000000 0.000000 0.000000 0.000000 0.000000 3.415798 -3.990096 -1.301342 -10.824324 7.894695 0.208048 1.068331 2.350679 -1.024865 10.811625 -17.573522 9.852961 0.000000 0.000000 0.000000 0.000000 0.000000 0.000000 -1.840552 -12.250946 26.230102 8.868015 4.855911 -2.767729 7.807992 22.244194 -3.391927 0.000000 0.000000 0.000000 -23.625538 12.403541 27.700026 31.469036 -31.519549 6.920960 73.081854 50.831093 -76.891500 0.000000 0.000000 0.000000
17.590844 81.586352 280.832948 0.663237 1.396973 -24.643993 0.992561 -0.443706 24.675856 0.346289 0.314656 0.081386 -4.599159 0.331506 1.077363 0.000000 0.000000 0.000000 -66.289407 49.318116 29.613952 8.803141 -24.328956 -1.754985 -12.894840 -2.750870 -42.467640 42.828829 -7.690336 31.569932 0.000000 0.000000 0.000000 0.000000 0.000000 0.000000 3.551100 -3.977754 -1.416260 -10.080508 7.966091 0.100850 3.273445 3.782717 -0.865972 9.414403 -18.979219 10.050532 0.000000 0.000000 0.000000 0.000000 0.000000 0.000000 -1.875059 -12.168291 25.736584 8.855055 4.839437 -2.761354 7.840725 22.253992 -3.435410 0.000000 0.000000 0.000000 -23.420730 12.693832 27.286469 31.613323 -31.613995 6.964523 72.958428 50.890001 -76.946102 0.000000 0.000000 0.000000
17.400854 81.127640 280.819802 0.518368 1.409383 -28.510415 1.084520 -0.341302 28.541819 0.369751 0.336882 0.079406 -4.703087 0.266243 1.122927 0.000000 0.000000 0.000000 -66.014553 49.195866 29.966688 8.047750 -24.611929 -3.675059 -10.185152 -1.723443 -34.061909 42.559866 -13.658460 27.902468 0.000000 0.000000 0.000000 0.000000 0.000000 0.000000 3.743107 -4.040104 -1.521689 -9.262809 8.118422 -0.042301 4.756408 4.928003 -0.750441 8.919867 -21.054330 10.963125 0.000000 0.000000 0.000000 0.000000 0.000000 0.000000 -0.268061 -12.954860 29.621374 8.682984 5.811854 -2.696981 7.886105 22.250539 -3.500094 0.000000 0.000000 0.000000 -24.730803 12.118826 31.309363 32.189013 -32.819426 7.517885 72.902607 50.922285 -77.054006 0.000000 0.000000 0.000000
